@startuml
left to right direction
skinparam classAttributeIconSize 0
skinparam shadowing false

class Usuario {
}

class Campo {
}

class Hoyo {
}

class Sesion {
}

class EventoDetectado {
}

class Clip {
}

Campo "1" o-- "1..*" Hoyo : contiene
Usuario "1" -- "0..*" Sesion : realiza
Hoyo "1" -- "0..*" Sesion : alberga
Sesion "1" *-- "1..*" EventoDetectado : incluye
EventoDetectado "1" -- "0..1" Clip : genera

@enduml